<svg width="18" height="21" viewBox="0 0 18 21" fill="none" xmlns="http://www.w3.org/2000/svg">
<path d="M1.85136 14.9894V14.4746L1.18712 14.8599L1.62884 15.6304L2.2964 15.2451L1.85136 14.9894V14.9894Z" fill="#F9E757"/>
<path d="M2.2964 15.2451L1.62884 15.6304L1.18712 14.8599L1.85136 14.4746V14.9894L2.2964 15.2451Z" fill="#F9E757"/>
<path d="M17.5907 5.64364L9.60986 1.03714C9.47369 0.957429 9.30431 0.957429 9.16482 1.03714L1.1873 5.64364C1.04781 5.72335 0.964783 5.86948 0.964783 6.0289L0.964783 15.2452C0.964783 15.4046 1.04781 15.5508 1.1873 15.6305L9.16482 20.237C9.23457 20.2768 9.31095 20.2968 9.38734 20.2968C9.46373 20.2968 9.54344 20.2768 9.60986 20.237L17.5907 15.6305C17.7302 15.5508 17.8132 15.4046 17.8132 15.2452V6.0289C17.8132 5.86948 17.7302 5.72335 17.5907 5.64364ZM2.29658 15.2452L9.38734 11.1502L16.4781 15.2452L9.38734 19.3403L2.29658 15.2452L1.62902 15.6305L1.1873 14.86L1.85154 14.4747L1.85154 6.28795L9.38734 1.93718L16.4781 6.0289L1.85154 14.4747V14.9895L2.29658 15.2452V15.2452Z" fill="#F9E757"/>
</svg>
