<svg width="19" height="19" viewBox="0 0 19 19" fill="none" xmlns="http://www.w3.org/2000/svg">
<path d="M18.0418 1.03323C17.9164 0.888444 17.7183 0.822631 17.5005 0.8687L1.95164 5.02806C1.77011 5.084 1.63149 5.2255 1.58198 5.40977C1.53578 5.59076 1.5919 5.7849 1.72393 5.91653L3.95507 8.141L0.657837 9.02618C0.476308 9.07883 0.33769 9.22362 0.291482 9.40789C0.245275 9.58888 0.301381 9.78302 0.433403 9.91465L9.08082 18.5295C9.18314 18.6315 9.32175 18.6875 9.46037 18.6875C9.50328 18.6875 9.5495 18.6809 9.5924 18.671C9.77393 18.6249 9.91915 18.4835 9.97856 18.2893L10.8532 15.0184L13.0976 17.2593C13.1999 17.3581 13.3352 17.414 13.4738 17.414C13.5168 17.414 13.563 17.4074 13.6059 17.3975C13.7907 17.3515 13.9326 17.2133 13.992 17.0191L18.154 1.52683C18.2035 1.35571 18.1606 1.16815 18.0418 1.03323ZM9.27885 17.4798L1.48628 9.71721L4.67789 8.86164L10.1304 14.2978L9.27885 17.4798ZM13.2956 16.2063L11.1173 14.0345L13.1339 6.52859C13.1933 6.34102 13.1405 6.137 13.0019 5.9988C12.8632 5.86059 12.6619 5.80794 12.4837 5.86059L4.94195 7.87775L2.77678 5.71909L17.144 1.87563L13.2956 16.2063Z" fill="#F9E757"/>
</svg>
