<svg width="18" height="16" viewBox="0 0 18 16" fill="none" xmlns="http://www.w3.org/2000/svg">
<path d="M9.56549 14.2452C9.41873 14.1074 9.26562 13.969 9.11935 13.8158C9.00244 13.9306 8.89286 14.0382 8.77693 14.1453C7.32945 15.4709 5.83745 16.0227 4.95301 15.4863C4.09744 14.9728 3.8279 13.4561 4.17032 11.5479C4.20685 11.3411 4.25071 11.1342 4.30191 10.9274C4.14831 10.8793 4.00205 10.8352 3.85578 10.7833C2.03457 10.1229 0.835587 9.05041 0.835587 7.97744C0.835587 6.94338 1.95434 5.93958 3.70169 5.29599C3.89736 5.22683 4.1038 5.15815 4.3161 5.09667C4.26718 4.89736 4.22854 4.70572 4.19185 4.52033C3.82594 2.58333 4.08178 1.03584 4.9447 0.514726C5.84381 -0.0371251 7.3358 0.553149 8.83416 1.93974C8.92173 2.02379 9.00978 2.11601 9.10468 2.20774C9.24361 2.0699 9.37519 1.93206 9.51412 1.80958C10.9327 0.512805 12.3435 -0.0294405 13.2064 0.491672C14.1056 1.02767 14.3692 2.68275 13.9671 4.72877C13.9451 4.85941 13.9182 4.98189 13.8869 5.113C14.0699 5.1668 14.2523 5.22779 14.4206 5.28927C16.2046 5.93286 17.3601 6.93666 17.3454 7.99377C17.3454 9.07394 16.1097 10.1392 14.2147 10.7982C14.1124 10.8289 14.0102 10.8673 13.9074 10.8976C13.9515 11.0508 13.9803 11.204 14.0097 11.3572C14.3898 13.3418 14.0972 14.9661 13.2128 15.5026C12.9805 15.6399 12.7134 15.7098 12.4424 15.7043C11.6318 15.7029 10.6025 15.1789 9.56549 14.2452ZM10.9988 11.4331C10.5788 12.0746 10.1172 12.6889 9.61685 13.2721C9.75578 13.4162 9.8947 13.5483 10.0336 13.6708C11.2399 14.7586 12.3514 15.165 12.8709 14.8508C13.0295 14.7167 13.1592 14.5527 13.2521 14.3684C13.345 14.1842 13.3994 13.9836 13.4119 13.7784C13.5175 13.018 13.4877 12.2454 13.3239 11.4951C13.3018 11.3572 13.2749 11.2194 13.2363 11.0739C12.4996 11.2432 11.752 11.3632 10.9988 11.4331ZM4.87132 11.6785C4.57194 13.3115 4.79109 14.5286 5.31158 14.8432C5.49598 14.9188 5.69507 14.9537 5.89475 14.9454C6.09442 14.9371 6.2898 14.8858 6.46702 14.7951C7.15649 14.5106 7.78439 14.0997 8.3171 13.5843C8.42668 13.4921 8.52891 13.385 8.63898 13.2779C8.12763 12.6944 7.65384 12.0802 7.22036 11.4389C6.46997 11.3773 5.72481 11.265 4.99019 11.1027C4.9447 11.303 4.90801 11.4941 4.87132 11.6785ZM9.12718 12.751C9.44906 12.3754 9.77045 11.9619 10.0923 11.5023C9.77045 11.5176 9.43439 11.5253 9.09783 11.5253C8.76127 11.5253 8.44722 11.5176 8.13268 11.5023C8.46141 11.9537 8.79063 12.3754 9.12669 12.751H9.12718ZM7.59116 5.27294C7.3133 5.69415 7.04279 6.13746 6.78695 6.60622C6.53111 7.06586 6.29777 7.53318 6.08497 7.99906C6.30462 8.45869 6.53844 8.92601 6.79428 9.4015C7.05012 9.86113 7.32064 10.314 7.59849 10.742C8.08083 10.7727 8.58566 10.79 9.09734 10.79C9.60902 10.79 10.1207 10.7746 10.6109 10.7367C10.874 10.3155 11.1446 9.86306 11.4009 9.39574C11.6572 8.92842 11.8979 8.45341 12.1102 7.99377C11.8979 7.54182 11.6567 7.0745 11.4009 6.6067C11.145 6.1389 10.8745 5.69415 10.604 5.27342C10.1148 5.235 9.60951 5.21194 9.09783 5.21194C8.58615 5.21194 8.08132 5.23452 7.59116 5.27294ZM5.17852 10.3986C5.6802 10.5111 6.18797 10.5956 6.69938 10.6517C6.52377 10.3606 6.34864 10.0691 6.18036 9.76268C6.01942 9.46394 5.85848 9.1652 5.71222 8.86646C5.5004 9.38709 5.32479 9.90148 5.17852 10.3986ZM12.0148 9.75499C11.8465 10.0614 11.6783 10.3525 11.5105 10.6363C12.0295 10.5725 12.5446 10.4804 13.0533 10.3606C12.8945 9.84342 12.709 9.33447 12.4976 8.83572C12.344 9.14214 12.1831 9.44857 12.0148 9.75499ZM3.92818 6.00058C2.43667 6.55243 1.53756 7.35595 1.53756 7.98513C1.56599 8.18754 1.63487 8.38245 1.74022 8.55867C1.84557 8.73488 1.98533 8.88894 2.15148 9.01199C2.72215 9.48316 3.37656 9.84675 4.08178 10.0845C4.21337 10.1325 4.3523 10.169 4.49123 10.2151C4.71582 9.46145 4.98684 8.72189 5.30278 8.0005C4.98623 7.29146 4.71758 6.56273 4.49856 5.81903C4.30126 5.8709 4.11113 5.93142 3.92818 6.00058ZM12.8997 7.98513C13.2242 8.69735 13.502 9.4292 13.7313 10.1762C13.8267 10.1455 13.9216 10.1147 14.0092 10.084C15.6396 9.51725 16.6508 8.65129 16.6561 7.97696C16.6561 7.34875 15.7203 6.5361 14.1921 5.98473C14.0385 5.93142 13.8708 5.87762 13.703 5.82383C13.4815 6.56002 13.2132 7.28187 12.8997 7.98513ZM12.008 6.22295C12.1762 6.52937 12.3372 6.82859 12.483 7.12733C12.6861 6.6391 12.8618 6.14029 13.0093 5.63316C12.5127 5.51468 12.0099 5.42265 11.5031 5.35747C11.6787 5.64036 11.8465 5.92421 12.0075 6.22295H12.008ZM5.18586 5.62691C5.33261 6.11729 5.50774 6.61535 5.71222 7.12829C5.85897 6.82956 6.01942 6.53082 6.18036 6.23208C6.3413 5.93334 6.50909 5.64228 6.68471 5.35843C6.15835 5.42615 5.66134 5.51789 5.18586 5.62691ZM9.97493 2.37056C9.85068 2.48535 9.72643 2.60782 9.60169 2.73078C10.1094 3.30687 10.5761 3.91669 10.9983 4.55587C11.7424 4.62639 12.4803 4.74934 13.2064 4.92377C13.2358 4.80898 13.2554 4.69371 13.2798 4.57892C13.6223 2.81675 13.4114 1.4681 12.8557 1.13142C12.7337 1.0642 12.5954 1.03098 12.4556 1.03536C11.8583 1.03248 10.9415 1.48923 9.97493 2.36912V2.37056ZM5.29544 1.15063C4.77642 1.46474 4.57145 2.72117 4.87866 4.37624C4.91535 4.55251 4.95203 4.72829 4.99557 4.91224C5.72267 4.74423 6.46035 4.62389 7.20373 4.55203C7.62747 3.91204 8.09661 3.30217 8.60767 2.72693C8.52745 2.6424 8.4394 2.56604 8.35917 2.48919C7.34168 1.54446 6.36332 1.04592 5.72445 1.04592C5.5743 1.0409 5.42571 1.07716 5.29544 1.15063ZM10.0772 4.49103C9.77563 4.06267 9.45033 3.65092 9.10272 3.25765C8.77399 3.63276 8.44478 4.04677 8.12436 4.49103C8.44624 4.47566 8.76763 4.46798 9.09685 4.46798C9.42607 4.46798 9.75578 4.47422 10.0777 4.49103H10.0772ZM7.63518 8.01587C7.62833 7.81894 7.66112 7.62263 7.73168 7.43817C7.80224 7.25372 7.90918 7.08475 8.04638 6.94094C8.18357 6.79714 8.34832 6.68133 8.53119 6.60016C8.71405 6.51898 8.91143 6.47404 9.11202 6.4679C9.51674 6.48144 9.89948 6.65199 10.1763 6.94217C10.4532 7.23234 10.6015 7.61846 10.5889 8.01587C10.6019 8.4136 10.4537 8.80016 10.1767 9.09066C9.89969 9.38117 9.5166 9.55187 9.11153 9.56528C8.91083 9.55914 8.71335 9.51414 8.53042 9.43287C8.34748 9.3516 8.1827 9.23566 8.04552 9.09169C7.90835 8.94773 7.80148 8.77858 7.73107 8.59396C7.66065 8.40934 7.62806 8.21288 7.63518 8.01587Z" fill="white"/>
</svg>
