<svg width="15" height="16" viewBox="0 0 15 16" fill="none" xmlns="http://www.w3.org/2000/svg">
<path d="M7.57391 0.574005C3.47298 0.574005 0.147812 3.98537 0.147812 8.18906C0.147812 11.554 2.27618 14.4051 5.22673 15.4129C5.26811 15.4219 5.31036 15.4264 5.35271 15.4262C5.62787 15.4262 5.73396 15.224 5.73396 15.0483C5.73396 14.8659 5.72733 14.3885 5.72401 13.752C5.47837 13.8096 5.22707 13.8396 4.97477 13.8415C3.54591 13.8415 3.22102 12.7309 3.22102 12.7309C2.88287 11.8524 2.39553 11.617 2.39553 11.617C1.74906 11.1628 2.39222 11.1496 2.44194 11.1496H2.44526C3.19118 11.2159 3.58238 11.9386 3.58238 11.9386C3.95369 12.5884 4.45097 12.7707 4.89521 12.7707C5.18895 12.7648 5.47814 12.697 5.7439 12.5718C5.81021 12.0811 6.00249 11.7463 6.21467 11.554C4.567 11.3617 2.83314 10.7086 2.83314 7.79124C2.83314 6.95912 3.12156 6.2795 3.59564 5.74906C3.51939 5.55678 3.26412 4.78102 3.66858 3.73341C3.72283 3.72043 3.77859 3.71485 3.83434 3.71683C4.10287 3.71683 4.70956 3.8196 5.71075 4.5158C6.92729 4.17543 8.2139 4.17543 9.43043 4.5158C10.4316 3.8196 11.0383 3.71683 11.3068 3.71683C11.3626 3.71485 11.4184 3.72043 11.4726 3.73341C11.8771 4.78102 11.6218 5.55678 11.5455 5.74906C12.0196 6.28281 12.308 6.96243 12.308 7.79124C12.308 10.7153 10.5709 11.3584 8.91657 11.5474C9.18179 11.7828 9.42048 12.2469 9.42048 12.9563C9.42048 13.9741 9.41054 14.7963 9.41054 15.0449C9.41054 15.224 9.51331 15.4262 9.78847 15.4262C9.83302 15.4264 9.87746 15.4219 9.92108 15.4129C12.8749 14.4051 15 11.5507 15 8.18906C15 3.98537 11.6748 0.574005 7.57391 0.574005Z" fill="white"/>
</svg>
