<svg width="23" height="14" viewBox="0 0 23 14" fill="none" xmlns="http://www.w3.org/2000/svg">
<path d="M11.9602 0.395638C9.01628 0.395638 7.17632 1.86319 6.44033 4.79829C7.54431 3.33074 8.83228 2.78041 10.3043 3.1473C11.1441 3.35663 11.7444 3.96407 12.4088 4.63649C13.4912 5.73186 14.7439 6.99962 17.4801 6.99962C20.4241 6.99962 22.264 5.53207 23 2.59696C21.896 4.06452 20.608 4.61485 19.1361 4.24796C18.2962 4.03863 17.696 3.43119 17.0315 2.75876C15.9491 1.6634 14.6964 0.395638 11.9602 0.395638ZM6.44033 6.99962C3.49639 6.99962 1.65643 8.46717 0.920441 11.4023C2.02442 9.93472 3.31239 9.38439 4.78436 9.75128C5.6242 9.96061 6.22448 10.5681 6.88891 11.2405C7.9713 12.3358 9.22403 13.6036 11.9602 13.6036C14.9042 13.6036 16.7441 12.136 17.4801 9.20095C16.3761 10.6685 15.0882 11.2188 13.6162 10.8519C12.7763 10.6426 12.1761 10.0352 11.5116 9.36274C10.4292 8.26738 9.17652 6.99962 6.44033 6.99962Z" fill="white"/>
</svg>
