<svg width="15" height="16" viewBox="0 0 15 16" fill="none" xmlns="http://www.w3.org/2000/svg">
<path d="M6.65568 0.391695C6.85273 0.282974 7.07472 0.225891 7.30048 0.225891C7.52624 0.225891 7.74823 0.282974 7.94528 0.391695C9.90877 1.48652 11.8724 2.58119 13.8363 3.67569C14.0209 3.77948 14.1747 3.92934 14.2822 4.11027C14.3898 4.29119 14.4472 4.49682 14.4488 4.70655V11.2961C14.445 11.5135 14.3818 11.7259 14.266 11.911C14.1502 12.096 13.986 12.2468 13.7906 12.3475C11.8334 13.4365 9.8767 14.5259 7.92048 15.6158C7.71972 15.7254 7.49288 15.7799 7.26355 15.7736C7.03421 15.7673 6.81078 15.7005 6.6165 15.5801C6.0299 15.2443 5.4428 14.9093 4.85521 14.5752C4.72625 14.5175 4.61062 14.4344 4.51545 14.3309C4.59034 14.233 4.72426 14.2188 4.83289 14.1753C5.07395 14.0901 5.30642 13.9829 5.52728 13.8551C5.55511 13.8389 5.58722 13.8313 5.61947 13.8332C5.65173 13.8351 5.68267 13.8465 5.70832 13.8659C6.21027 14.1498 6.70726 14.442 7.2107 14.723C7.31834 14.7842 7.42696 14.7029 7.51872 14.6525C9.43923 13.5812 11.3604 12.5112 13.2822 11.4424C13.3165 11.4256 13.3448 11.3989 13.3635 11.3659C13.3822 11.3329 13.3903 11.2951 13.3869 11.2574C13.3869 9.08439 13.3869 6.91106 13.3869 4.73739C13.3904 4.6951 13.3804 4.6528 13.3583 4.61638C13.3363 4.57996 13.3033 4.55125 13.2639 4.53425C11.3129 3.45019 9.36301 2.36565 7.41406 1.28061C7.38024 1.25777 7.34022 1.24556 7.29924 1.24556C7.25826 1.24556 7.21824 1.25777 7.18442 1.28061C5.23349 2.36532 3.28372 3.45036 1.3351 4.53572C1.29556 4.55228 1.26233 4.58074 1.24015 4.61705C1.21797 4.65335 1.20798 4.69564 1.2116 4.73788C1.2116 6.91089 1.2116 9.08423 1.2116 11.2579C1.20822 11.2955 1.21658 11.3331 1.23556 11.3659C1.25453 11.3986 1.28322 11.4248 1.31774 11.441C1.83821 11.732 2.35884 12.0223 2.87964 12.3118C3.02407 12.3999 3.1857 12.4569 3.35399 12.4792C3.52227 12.5015 3.69342 12.4884 3.85626 12.441C3.99737 12.3885 4.11889 12.2948 4.20459 12.1723C4.29029 12.0499 4.3361 11.9045 4.3359 11.7557C4.33838 9.59509 4.3359 7.43448 4.3359 5.27436C4.33531 5.25144 4.33965 5.22866 4.34862 5.20751C4.35759 5.18636 4.371 5.16732 4.38795 5.15165C4.40491 5.13597 4.42504 5.12402 4.44701 5.11657C4.46899 5.10912 4.49231 5.10635 4.51545 5.10842C4.76345 5.10842 5.01591 5.105 5.26589 5.10842C5.29008 5.10953 5.31375 5.11564 5.3354 5.12634C5.35704 5.13704 5.37617 5.1521 5.39155 5.17055C5.40693 5.18901 5.41821 5.21044 5.42468 5.23346C5.43114 5.25648 5.43264 5.28059 5.42908 5.30422C5.42908 7.47854 5.43156 9.65285 5.42908 11.8267C5.4457 12.122 5.38177 12.4164 5.24393 12.679C5.1061 12.9417 4.89941 13.1631 4.6454 13.3201C4.30592 13.4762 3.93428 13.5523 3.55989 13.5422C3.18549 13.532 2.81862 13.4361 2.4883 13.2619C1.91592 12.9799 1.36982 12.6476 0.807856 12.3455C0.612798 12.2451 0.448798 12.0946 0.333137 11.9099C0.217476 11.7252 0.154436 11.5132 0.150658 11.2961L0.150658 4.70655C0.152343 4.49242 0.212118 4.28265 0.323768 4.09904C0.435417 3.91542 0.594865 3.76468 0.785536 3.66247C2.74308 2.57286 4.69979 1.48261 6.65568 0.391695Z" fill="white"/>
<path d="M8.3624 4.95495C9.22708 4.8445 10.1058 4.97718 10.8974 5.33775C11.1843 5.50663 11.4215 5.74656 11.5855 6.03376C11.7495 6.32097 11.8346 6.64548 11.8324 6.97515C11.8212 7.01638 11.7954 7.05225 11.7596 7.07617C11.7238 7.10009 11.6804 7.11046 11.6375 7.10536C11.3895 7.10536 11.1415 7.10878 10.8935 7.10536C10.8459 7.10233 10.8012 7.08188 10.768 7.04802C10.7349 7.01416 10.7158 6.96932 10.7144 6.92228C10.6864 6.76263 10.6234 6.61093 10.53 6.4777C10.4365 6.34448 10.3148 6.23293 10.1733 6.15082C9.70233 5.96626 9.19376 5.89446 8.68926 5.94131C8.31751 5.92983 7.94979 6.02013 7.62683 6.20222C7.51562 6.28731 7.43423 6.40466 7.39411 6.53777C7.35398 6.67088 7.35714 6.81306 7.40314 6.94431C7.4825 7.13081 7.70074 7.18906 7.8793 7.24634C8.908 7.51165 9.9977 7.48521 11.0066 7.83374C11.2232 7.89309 11.4232 8.00063 11.5912 8.1481C11.7592 8.29558 11.8908 8.47907 11.9757 8.68451C12.0769 8.976 12.1014 9.28808 12.0468 9.59145C11.9922 9.89482 11.8604 10.1795 11.6638 10.4188C11.308 10.7832 10.8459 11.029 10.3419 11.1218C9.68543 11.2533 9.01197 11.2816 8.34653 11.2055C7.70789 11.1695 7.09554 10.9423 6.59119 10.5539C6.39108 10.373 6.23397 10.1506 6.13107 9.90276C6.02818 9.6549 5.98205 9.38767 5.99599 9.12017C6.0005 9.07691 6.02218 9.03718 6.0563 9.00966C6.09041 8.98214 6.13417 8.96908 6.17802 8.97332C6.42602 8.97332 6.6765 8.97087 6.92599 8.97332C6.94908 8.9728 6.97205 8.9768 6.99356 8.98511C7.01507 8.99341 7.0347 9.00585 7.05131 9.02169C7.06792 9.03754 7.08118 9.05648 7.09032 9.07741C7.09945 9.09835 7.10429 9.12087 7.10455 9.14367C7.117 9.29569 7.16083 9.44358 7.23333 9.57827C7.30583 9.71296 7.40548 9.83159 7.52615 9.92688C8.06016 10.1862 8.6569 10.2933 9.24924 10.2362C9.74504 10.273 10.2398 10.153 10.6618 9.89359C10.7589 9.79998 10.8295 9.68302 10.8667 9.55426C10.9039 9.42549 10.9065 9.28937 10.8741 9.15933C10.8136 8.94199 10.583 8.84066 10.3851 8.77458C9.36977 8.45737 8.26766 8.57241 7.26029 8.21409C7.04936 8.15319 6.85433 8.04787 6.68863 7.90539C6.52294 7.76291 6.39053 7.58665 6.30053 7.38878C6.18499 7.0934 6.15581 6.77194 6.21631 6.46099C6.27682 6.15004 6.42458 5.86211 6.64277 5.62998C7.11813 5.21585 7.72341 4.97577 8.35694 4.95006L8.3624 4.95495Z" fill="white"/>
</svg>
