<svg width="18" height="12" viewBox="0 0 18 12" fill="none" xmlns="http://www.w3.org/2000/svg">
<path d="M14.7501 0.260045C14.5331 0.235994 14.2445 0.222254 13.9906 0.221441C13.8383 0.220976 13.6982 0.225044 13.5937 0.235155C12.7765 0.307718 12.0132 0.672511 11.4907 1.24016C11.2289 1.52451 10.9918 1.93231 10.876 2.29737C10.8242 2.4604 10.7936 2.55609 10.7756 2.6542C10.7491 2.79817 10.7496 2.94735 10.75 3.32221C10.7506 4.12737 10.7906 4.32669 11.0586 4.86215C11.3281 5.40061 11.7386 5.8405 12.331 6.22527C12.5906 6.39388 13.2555 6.73277 13.7984 6.97312C14.9802 7.49636 15.354 7.73784 15.5275 8.08982L15.5991 8.23504V8.53948C15.5991 8.83313 15.598 8.84824 15.5395 8.96932C15.4063 9.2495 15.0917 9.47887 14.6887 9.58972C14.5364 9.63155 14.4665 9.63741 14.1259 9.63753C13.7926 9.63753 13.7118 9.63059 13.559 9.59167C13.2923 9.52276 13.0676 9.42726 12.8919 9.30834C12.6769 9.16275 12.2538 8.72637 12.0818 8.47248C12.0058 8.36035 11.9297 8.26857 11.9126 8.26857C11.8843 8.26857 10.4259 9.12068 10.1714 9.28591C10.0856 9.34168 10.0639 9.36703 10.0639 9.41171C10.0639 9.5043 10.4047 10.0305 10.6716 10.3502C11.2153 11.0017 12.3056 11.5762 13.2716 11.7199C13.6533 11.7767 14.2877 11.7951 14.7308 11.7618C15.0211 11.7401 15.3145 11.6836 15.6299 11.5891C16.7708 11.2471 17.5492 10.5205 17.8377 9.52813C17.9553 9.12333 18.0028 8.62542 17.9639 8.20535C17.8843 7.34348 17.6251 6.73414 17.1134 6.20641C16.6383 5.71638 15.986 5.32149 14.6988 4.7446C13.5826 4.24436 13.2914 4.05011 13.1305 3.69873C12.9916 3.39541 13.018 2.97789 13.1927 2.71847C13.3971 2.4148 13.8145 2.26489 14.2799 2.32788C14.7126 2.38632 14.9924 2.56157 15.2666 2.94556C15.4089 3.14498 15.5077 3.24883 15.5551 3.24883C15.6018 3.24883 15.8031 3.12185 16.428 2.69787C17.0641 2.26628 17.2641 2.1198 17.2778 2.07565C17.2991 2.00722 17.1993 1.84721 16.9077 1.48155C16.3222 0.747493 15.6339 0.357773 14.7501 0.260045Z" fill="white"/>
<path d="M9.44943 0.361614C9.43496 0.352319 8.53247 0.346752 6.95856 0.345939C6.43388 0.345607 5.83467 0.345918 5.16878 0.346604C1.71518 0.350086 0.913656 0.355958 0.892045 0.378732C0.871015 0.400222 0.865555 0.616585 0.865555 1.42446L0.865555 2.44307L4.00662 2.4546L4.007 6.99836C4.00713 9.49741 4.01269 11.5633 4.02031 11.5891L4.0321 11.6363H5.17348C6.19535 11.6363 6.31615 11.6339 6.32725 11.6033C6.33407 11.585 6.33904 9.51923 6.33904 7.01248V2.45486L9.48011 2.4432V1.41239C9.48011 0.518866 9.47671 0.378879 9.44943 0.361614Z" fill="white"/>
</svg>
